2-Regular.ufo
<glyph name="exclam" format="2">
	<advance width="252"/>
	<unicode hex="0021"/>
	<outline>
		<contour>
			<point x="139" y="260" type="move"/>
			<point x="139" y="760" type="line"/>
			<point x="111" y="760" type="line"/>
			<point x="111" y="260" type="line"/>
			<point x="83" y="260" type="line"/>
			<point x="83" y="760" type="line"/>
			<point x="55" y="760" type="line"/>
			<point x="55" y="260" type="line"/>
		</contour>
		<contour>
			<point x="139" y="0" type="move"/>
			<point x="139" y="105" type="line"/>
			<point x="111" y="105" type="line"/>
			<point x="111" y="0" type="line"/>
			<point x="83" y="0" type="line"/>
			<point x="83" y="105" type="line"/>
			<point x="55" y="105" type="line"/>
			<point x="55" y="0" type="line"/>
		</contour>
	</outline>
</glyph>
<glyph name="two" format="2">
	<advance width="600"/>
	<unicode hex="0032"/>
	<outline>
		<contour>
			<point x="488" y="126" type="move"/>
			<point x="488" y="30" type="line"/>
			<point x="460" y="30" type="line"/>
			<point x="460" y="126" type="line"/>
			<point x="432" y="126" type="line"/>
			<point x="432" y="-18" type="line"/>
			<point x="164" y="-18" type="line"/>
			<point x="164" y="96" type="line"/>
			<point x="136" y="96" type="line"/>
			<point x="136" y="34"/>
			<point x="136" y="40"/>
			<point x="136" y="23" type="curve"/>
			<point x="108" y="23" type="line"/>
			<point x="108" y="95" type="line"/>
			<point x="80" y="95" type="line"/>
			<point x="80" y="20" type="line"/>
		</contour>
		<contour>
			<point x="164" y="96" type="move"/>
			<point x="351" y="176"/>
			<point x="424" y="259"/>
			<point x="424" y="393" type="curve" smooth="yes"/>
			<point x="424" y="463"/>
			<point x="384" y="518"/>
			<point x="296" y="518" type="curve" smooth="yes"/>
			<point x="227" y="518"/>
			<point x="164" y="484"/>
			<point x="164" y="376" type="curve" smooth="yes"/>
			<point x="164" y="344" type="line"/>
			<point x="136" y="344" type="line"/>
			<point x="136" y="443" type="line"/>
			<point x="108" y="443" type="line"/>
			<point x="108" y="344" type="line"/>
			<point x="80" y="344" type="line"/>
			<point x="80" y="443" type="line"/>
		</contour>
		<contour>
			<point x="490" y="395" type="move"/>
			<point x="480" y="395" type="line"/>
			<point x="480" y="284" type="line"/>
			<point x="462" y="284" type="line"/>
			<point x="462" y="395" type="line"/>
			<point x="434" y="395" type="line"/>
			<point x="434" y="283" type="line"/>
			<point x="411" y="283" type="line"/>
		</contour>
	</outline>
</glyph>
<glyph name="six" format="2">
	<advance width="551"/>
	<unicode hex="0036"/>
	<outline>
		<contour>
			<point x="65" y="622" type="move"/>
			<point x="65" y="84" type="line"/>
			<point x="93" y="84" type="line"/>
			<point x="93" y="622" type="line"/>
			<point x="121" y="622" type="line"/>
			<point x="121" y="127" type="line" smooth="yes"/>
			<point x="121" y="36"/>
			<point x="168" y="-18"/>
			<point x="269" y="-18" type="curve" smooth="yes"/>
			<point x="367" y="-18"/>
			<point x="409" y="36"/>
			<point x="409" y="127" type="curve" smooth="yes"/>
			<point x="409" y="311" type="line"/>
			<point x="437" y="311" type="line"/>
			<point x="437" y="64"/>
			<point x="437" y="60"/>
			<point x="437" y="43" type="curve"/>
			<point x="465" y="43" type="line"/>
			<point x="465" y="310" type="line"/>
			<point x="493" y="310" type="line"/>
			<point x="493" y="40" type="line"/>
		</contour>
		<contour>
			<point x="149" y="137" type="move"/>
			<point x="149" y="196"/>
			<point x="149" y="508"/>
			<point x="149" y="535" type="curve" smooth="yes"/>
			<point x="149" y="660"/>
			<point x="210" y="700"/>
			<point x="280" y="700" type="curve" smooth="yes"/>
			<point x="344" y="700"/>
			<point x="398" y="666"/>
			<point x="398" y="558" type="curve" smooth="yes"/>
			<point x="398" y="526" type="line"/>
			<point x="426" y="526" type="line"/>
			<point x="426" y="625" type="line"/>
			<point x="454" y="625" type="line"/>
			<point x="454" y="526" type="line"/>
			<point x="482" y="526" type="line"/>
			<point x="482" y="625" type="line"/>
		</contour>
		<contour>
			<point x="404" y="310" type="move"/>
			<point x="165" y="310" type="line"/>
		</contour>
	</outline>
</glyph>
<glyph name="H" format="2">
	<advance width="705"/>
	<unicode hex="0048"/>
	<outline>
		<contour>
			<point x="607" y="0" type="move"/>
			<point x="607" y="759" type="line"/>
			<point x="579" y="759" type="line"/>
			<point x="579" y="3" type="line"/>
			<point x="551" y="3" type="line"/>
			<point x="551" y="20"/>
			<point x="551" y="614"/>
			<point x="551" y="760" type="curve"/>
			<point x="523" y="760" type="line"/>
			<point x="523" y="412" type="line"/>
			<point x="182" y="412" type="line"/>
			<point x="182" y="0" type="line"/>
			<point x="154" y="0" type="line"/>
			<point x="154" y="760" type="line"/>
			<point x="126" y="760" type="line"/>
			<point x="126" y="0" type="line"/>
			<point x="98" y="0" type="line"/>
			<point x="98" y="760" type="line"/>
		</contour>
	</outline>
</glyph>
<glyph name="a" format="2">
	<advance width="600"/>
	<unicode hex="0061"/>
	<outline>
		<contour>
			<point x="507" y="440" type="line"/>
			<point x="507" y="10" type="line"/>
			<point x="489" y="10" type="line"/>
			<point x="489" y="440" type="line"/>
			<point x="451" y="440" type="line"/>
			<point x="451" y="60" type="line"/>
			<point x="415" y="26"/>
			<point x="362" y="-8"/>
			<point x="293" y="-8" type="curve" smooth="yes"/>
			<point x="193" y="-8"/>
			<point x="173" y="45"/>
			<point x="173" y="127" type="curve" smooth="yes"/>
			<point x="173" y="227" type="line"/>
			<point x="135" y="227" type="line"/>
			<point x="135" y="53" type="line"/>
			<point x="117" y="53" type="line"/>
			<point x="117" y="226" type="line"/>
			<point x="79" y="226" type="line"/>
			<point x="79" y="43" type="line"/>
			<point x="89" y="43" type="line"/>
			<point x="89" y="216" type="line"/>
			<point x="107" y="216" type="line"/>
			<point x="107" y="43" type="line"/>
			<point x="145" y="43" type="line"/>
			<point x="145" y="217" type="line"/>
			<point x="163" y="217" type="line"/>
			<point x="163" y="127" type="line" smooth="yes"/>
			<point x="163" y="45"/>
			<point x="184" y="-18"/>
			<point x="293" y="-18" type="curve" smooth="yes"/>
			<point x="362" y="-18"/>
			<point x="424" y="19"/>
			<point x="461" y="57" type="curve"/>
			<point x="461" y="430" type="line"/>
			<point x="479" y="430" type="line"/>
			<point x="479" y="0" type="line"/>
			<point x="517" y="0" type="line"/>
			<point x="517" y="440" type="line"/>
		</contour>
		<contour>
			<point x="89" y="483" type="line"/>
			<point x="89" y="404" type="line"/>
			<point x="107" y="404" type="line"/>
			<point x="107" y="483" type="line"/>
			<point x="145" y="483" type="line"/>
			<point x="145" y="404" type="line"/>
			<point x="163" y="404" type="line"/>
			<point x="163" y="486" type="line"/>
			<point x="209" y="520"/>
			<point x="245" y="528"/>
			<point x="292" y="528" type="curve" smooth="yes"/>
			<point x="380" y="528"/>
			<point x="433" y="466"/>
			<point x="433" y="363" type="curve" smooth="yes"/>
			<point x="433" y="216" type="line"/>
			<point x="188" y="216" type="line"/>
			<point x="188" y="226" type="line"/>
			<point x="423" y="226" type="line"/>
			<point x="423" y="353" type="line" smooth="yes"/>
			<point x="423" y="460"/>
			<point x="377" y="518"/>
			<point x="292" y="518" type="curve" smooth="yes"/>
			<point x="245" y="518"/>
			<point x="212" y="509"/>
			<point x="173" y="483" type="curve"/>
			<point x="173" y="394" type="line"/>
			<point x="135" y="394" type="line"/>
			<point x="135" y="473" type="line"/>
			<point x="117" y="473" type="line"/>
			<point x="117" y="394" type="line"/>
			<point x="79" y="394" type="line"/>
			<point x="79" y="483" type="line"/>
		</contour>
	</outline>
</glyph>
<glyph name="b" format="2">
	<advance width="590"/>
	<unicode hex="0062"/>
	<outline>
		<contour>
			<point x="436" y="373" type="curve"/>
			<point x="446" y="373" type="line"/>
			<point x="446" y="470"/>
			<point x="395" y="518"/>
			<point x="305" y="518" type="curve" smooth="yes"/>
			<point x="215" y="518"/>
			<point x="164" y="470"/>
			<point x="164" y="373" type="curve" smooth="yes"/>
			<point x="164" y="115" type="line"/>
			<point x="146" y="115" type="line"/>
			<point x="146" y="760" type="line"/>
			<point x="108" y="760" type="line"/>
			<point x="108" y="114" type="line"/>
			<point x="90" y="114" type="line"/>
			<point x="90" y="760" type="line"/>
			<point x="80" y="760" type="line"/>
			<point x="80" y="104" type="line"/>
			<point x="118" y="104" type="line"/>
			<point x="118" y="750" type="line"/>
			<point x="136" y="750" type="line"/>
			<point x="136" y="105" type="line"/>
			<point x="174" y="105" type="line"/>
			<point x="174" y="373" type="line" smooth="yes"/>
			<point x="174" y="462"/>
			<point x="220" y="508"/>
			<point x="305" y="508" type="curve" smooth="yes"/>
			<point x="390" y="508"/>
			<point x="436" y="462"/>
		</contour>
		<contour>
			<point x="174" y="127" type="curve"/>
			<point x="164" y="127" type="line"/>
			<point x="164" y="30"/>
			<point x="215" y="-18"/>
			<point x="305" y="-18" type="curve" smooth="yes"/>
			<point x="395" y="-18"/>
			<point x="446" y="30"/>
			<point x="446" y="127" type="curve" smooth="yes"/>
			<point x="446" y="385" type="line"/>
			<point x="464" y="385" type="line"/>
			<point x="464" y="105" type="line"/>
			<point x="502" y="105" type="line"/>
			<point x="502" y="386" type="line"/>
			<point x="520" y="386" type="line"/>
			<point x="520" y="105" type="line"/>
			<point x="530" y="105" type="line"/>
			<point x="530" y="396" type="line"/>
			<point x="492" y="396" type="line"/>
			<point x="492" y="115" type="line"/>
			<point x="474" y="115" type="line"/>
			<point x="474" y="395" type="line"/>
			<point x="436" y="395" type="line"/>
			<point x="436" y="127" type="line" smooth="yes"/>
			<point x="436" y="38"/>
			<point x="390" y="-8"/>
			<point x="305" y="-8" type="curve" smooth="yes"/>
			<point x="220" y="-8"/>
			<point x="174" y="38"/>
		</contour>
	</outline>
</glyph>
<glyph name="c" format="2">
	<advance width="600"/>
	<unicode hex="0063"/>
	<outline>
		<contour>
<<<<<<< HEAD
			<point x="80" y="440" type="move"/>
			<point x="80" y="84" type="line"/>
			<point x="108" y="84" type="line"/>
			<point x="108" y="440" type="line"/>
			<point x="136" y="440" type="line"/>
			<point x="136" y="147" type="line"/>
			<point x="136" y="50"/>
			<point x="187" y="-18"/>
			<point x="282" y="-18" type="curve" smooth="yes"/>
			<point x="386" y="-18"/>
			<point x="424" y="45"/>
			<point x="424" y="127" type="curve" smooth="yes"/>
			<point x="424" y="137" type="line"/>
			<point x="452" y="137" type="line"/>
			<point x="452" y="60"/>
			<point x="452" y="60"/>
			<point x="452" y="43" type="curve"/>
			<point x="480" y="43" type="line"/>
			<point x="480" y="136" type="line"/>
			<point x="508" y="136" type="line"/>
			<point x="508" y="40" type="line"/>
		</contour>
		<contour>
			<point x="164" y="137" type="move"/>
			<point x="164" y="196"/>
			<point x="164" y="306"/>
			<point x="164" y="353" type="curve" smooth="yes"/>
			<point x="164" y="478"/>
			<point x="236" y="518"/>
			<point x="306" y="518" type="curve" smooth="yes"/>
			<point x="370" y="518"/>
			<point x="424" y="484"/>
			<point x="424" y="376" type="curve"/>
			<point x="424" y="344" type="line"/>
			<point x="452" y="344" type="line"/>
			<point x="452" y="443" type="line"/>
			<point x="480" y="443" type="line"/>
			<point x="480" y="344" type="line"/>
			<point x="508" y="344" type="line"/>
			<point x="508" y="443" type="line"/>
=======
			<point x="79" y="36" type="move"/>
			<point x="79" y="466" type="line"/>
			<point x="107" y="466" type="line"/>
			<point x="107" y="36" type="line"/>
			<point x="135" y="36" type="line"/>
			<point x="135" y="466" type="line"/>
		</contour>
		<contour>
			<point x="507" y="474" type="move"/>
			<point x="507" y="355" type="line"/>
			<point x="479" y="355" type="line"/>
			<point x="479" y="474" type="line"/>
			<point x="451" y="474" type="line"/>
			<point x="451" y="355" type="line"/>
			<point x="423" y="355" type="line"/>
			<point x="423" y="474" type="line"/>
			<point x="384" y="505"/>
			<point x="341" y="519"/>
			<point x="294" y="519" type="curve" smooth="yes"/>
			<point x="224" y="519"/>
			<point x="163" y="479"/>
			<point x="163" y="354" type="curve" smooth="yes"/>
			<point x="163" y="307"/>
			<point x="163" y="194"/>
			<point x="163" y="147" type="curve" smooth="yes"/>
			<point x="163" y="22"/>
			<point x="224" y="-18"/>
			<point x="294" y="-18" type="curve" smooth="yes"/>
			<point x="341" y="-18"/>
			<point x="384" y="-4"/>
			<point x="423" y="27" type="curve"/>
			<point x="423" y="136" type="line"/>
			<point x="451" y="136" type="line"/>
			<point x="451" y="27" type="line"/>
			<point x="479" y="27" type="line"/>
			<point x="479" y="136" type="line"/>
			<point x="507" y="136" type="line"/>
			<point x="507" y="27" type="line"/>
>>>>>>> 3f6055f1c3eb77e2ff35f4d328754d5829fc1118
		</contour>
	</outline>
</glyph>
<glyph name="d" format="2">
	<advance width="590"/>
	<unicode hex="0064"/>
	<outline>
		<contour>
			<point x="472" y="104" type="line"/>
			<point x="510" y="104" type="line"/>
			<point x="510" y="760" type="line"/>
			<point x="500" y="760" type="line"/>
			<point x="500" y="114" type="line"/>
			<point x="482" y="114" type="line"/>
			<point x="482" y="760" type="line"/>
			<point x="444" y="760" type="line"/>
			<point x="444" y="115" type="line"/>
			<point x="426" y="115" type="line"/>
			<point x="426" y="373" type="line" smooth="yes"/>
			<point x="426" y="470"/>
			<point x="375" y="518"/>
			<point x="285" y="518" type="curve" smooth="yes"/>
			<point x="195" y="518"/>
			<point x="144" y="470"/>
			<point x="144" y="373" type="curve"/>
			<point x="154" y="373" type="line"/>
			<point x="154" y="462"/>
			<point x="200" y="508"/>
			<point x="285" y="508" type="curve" smooth="yes"/>
			<point x="370" y="508"/>
			<point x="416" y="462"/>
			<point x="416" y="373" type="curve" smooth="yes"/>
			<point x="416" y="105" type="line"/>
			<point x="454" y="105" type="line"/>
			<point x="454" y="750" type="line"/>
			<point x="472" y="750" type="line"/>
		</contour>
		<contour>
			<point x="285" y="-18" type="curve" smooth="yes"/>
			<point x="375" y="-18"/>
			<point x="426" y="30"/>
			<point x="426" y="127" type="curve"/>
			<point x="416" y="127" type="line"/>
			<point x="416" y="38"/>
			<point x="370" y="-8"/>
			<point x="285" y="-8" type="curve" smooth="yes"/>
			<point x="200" y="-8"/>
			<point x="154" y="38"/>
			<point x="154" y="127" type="curve" smooth="yes"/>
			<point x="154" y="395" type="line"/>
			<point x="116" y="395" type="line"/>
			<point x="116" y="115" type="line"/>
			<point x="98" y="115" type="line"/>
			<point x="98" y="396" type="line"/>
			<point x="60" y="396" type="line"/>
			<point x="60" y="105" type="line"/>
			<point x="70" y="105" type="line"/>
			<point x="70" y="386" type="line"/>
			<point x="88" y="386" type="line"/>
			<point x="88" y="105" type="line"/>
			<point x="126" y="105" type="line"/>
			<point x="126" y="385" type="line"/>
			<point x="144" y="385" type="line"/>
			<point x="144" y="127" type="line" smooth="yes"/>
			<point x="144" y="30"/>
			<point x="195" y="-18"/>
		</contour>
	</outline>
</glyph>
<glyph name="e" format="2">
	<advance width="622"/>
	<unicode hex="0065"/>
	<outline>
		<contour>
			<point x="577" y="27" type="move"/>
			<point x="577" y="106" type="line"/>
			<point x="549" y="106" type="line"/>
			<point x="549" y="27" type="line"/>
			<point x="521" y="27" type="line"/>
			<point x="521" y="106" type="line"/>
			<point x="493" y="106" type="line"/>
			<point x="493" y="21" type="line"/>
			<point x="475" y="11"/>
			<point x="430" y="-13"/>
			<point x="366" y="-13" type="curve" smooth="yes"/>
			<point x="296" y="-13"/>
			<point x="233" y="27"/>
			<point x="233" y="152" type="curve"/>
			<point x="233" y="348" type="line" smooth="yes"/>
			<point x="233" y="473"/>
			<point x="296" y="513"/>
			<point x="366" y="513" type="curve" smooth="yes"/>
			<point x="470" y="513"/>
			<point x="493" y="455"/>
			<point x="493" y="373" type="curve" smooth="yes"/>
			<point x="493" y="279" type="line"/>
			<point x="521" y="279" type="line"/>
			<point x="521" y="390" type="line"/>
			<point x="549" y="390" type="line"/>
			<point x="549" y="279" type="line"/>
			<point x="577" y="279" type="line"/>
			<point x="577" y="390" type="line"/>
		</contour>
		<contour>
			<point x="49" y="105" type="move"/>
			<point x="49" y="395" type="line"/>
			<point x="77" y="395" type="line"/>
			<point x="77" y="105" type="line"/>
			<point x="105" y="105" type="line"/>
			<point x="105" y="437" type="line"/>
		</contour>
		<contour>
			<point x="235" y="110" type="move"/>
			<point x="210" y="110" type="line"/>
			<point x="210" y="390" type="line"/>
			<point x="182" y="390" type="line"/>
			<point x="182" y="109" type="line"/>
			<point x="154" y="109" type="line"/>
			<point x="154" y="390" type="line" smooth="yes"/>
		</contour>
		<contour>
			<point x="493" y="279" type="move"/>
			<point x="263" y="279" type="line"/>
		</contour>
	</outline>
</glyph>
<glyph name="f" format="2">
	<advance width="520"/>
	<unicode hex="0066"/>
	<outline>
		<contour>
			<point x="85" y="700" type="move"/>
			<point x="85" y="0" type="line"/>
			<point x="113" y="0" type="line"/>
			<point x="113" y="700" type="line"/>
			<point x="141" y="700" type="line"/>
			<point x="141" y="0" type="line"/>
			<point x="169" y="0" type="line"/>
			<point x="169" y="699" type="line"/>
			<point x="198" y="734"/>
			<point x="234" y="780"/>
			<point x="307" y="780" type="curve" smooth="yes"/>
			<point x="389" y="780"/>
			<point x="428" y="720"/>
			<point x="428" y="631" type="curve" smooth="yes"/>
			<point x="428" y="568" type="line"/>
			<point x="456" y="568" type="line"/>
			<point x="456" y="624"/>
			<point x="456" y="683"/>
			<point x="456" y="700" type="curve"/>
			<point x="484" y="700" type="line"/>
			<point x="484" y="569" type="line"/>
			<point x="512" y="569" type="line"/>
			<point x="512" y="703" type="line"/>
		</contour>
		<contour>
			<point x="348" y="500" type="move"/>
			<point x="170" y="500" type="line"/>
		</contour>
	</outline>
</glyph>
<glyph name="g" format="2">
	<advance width="600"/>
	<unicode hex="0067"/>
	<outline>
		<contour>
			<point x="79" y="456" type="move"/>
			<point x="79" y="83" type="line"/>
			<point x="107" y="83" type="line"/>
			<point x="107" y="453" type="line"/>
			<point x="135" y="453" type="line"/>
			<point x="135" y="436"/>
			<point x="135" y="230"/>
			<point x="135" y="82" type="curve"/>
			<point x="163" y="82" type="line"/>
			<point x="163" y="346" type="line" smooth="yes"/>
			<point x="163" y="428"/>
			<point x="200" y="514"/>
			<point x="313" y="514" type="curve" smooth="yes"/>
			<point x="369" y="514"/>
			<point x="423" y="483"/>
			<point x="451" y="439" type="curve"/>
			<point x="451" y="-131" type="line"/>
			<point x="479" y="-131" type="line"/>
			<point x="479" y="496" type="line"/>
			<point x="507" y="496" type="line"/>
			<point x="507" y="-131" type="line"/>
		</contour>
		<contour>
			<point x="79" y="-174" type="move"/>
			<point x="79" y="-95" type="line"/>
			<point x="107" y="-95" type="line"/>
			<point x="107" y="-174" type="line"/>
			<point x="135" y="-174" type="line"/>
			<point x="135" y="-95" type="line"/>
			<point x="163" y="-95" type="line"/>
			<point x="163" y="-174" type="line"/>
			<point x="202" y="-205"/>
			<point x="245" y="-219"/>
			<point x="292" y="-219" type="curve" smooth="yes"/>
			<point x="362" y="-219"/>
			<point x="423" y="-179"/>
			<point x="423" y="-54" type="curve" smooth="yes"/>
			<point x="423" y="-7"/>
			<point x="423" y="24"/>
			<point x="423" y="83" type="curve"/>
			<point x="369" y="-16"/>
			<point x="231" y="0"/>
			<point x="188" y="83" type="curve"/>
		</contour>
	</outline>
</glyph>
<glyph name="h" format="2">
	<advance width="616"/>
	<unicode hex="0068"/>
	<outline>
		<contour>
			<point x="80" y="760" type="line"/>
			<point x="80" y="0" type="line"/>
			<point x="118" y="0" type="line"/>
			<point x="118" y="750" type="line"/>
			<point x="136" y="750" type="line"/>
			<point x="136" y="0" type="line"/>
			<point x="174" y="0" type="line"/>
			<point x="174" y="442" type="line"/>
			<point x="208" y="475"/>
			<point x="248" y="508"/>
			<point x="330" y="508" type="curve" smooth="yes"/>
			<point x="409" y="508"/>
			<point x="452" y="457"/>
			<point x="452" y="363" type="curve" smooth="yes"/>
			<point x="452" y="0" type="line"/>
			<point x="490" y="0" type="line"/>
			<point x="490" y="442" type="line"/>
			<point x="508" y="442" type="line"/>
			<point x="508" y="1" type="line"/>
			<point x="546" y="1" type="line"/>
			<point x="546" y="445" type="line"/>
			<point x="536" y="445" type="line"/>
			<point x="536" y="11" type="line"/>
			<point x="518" y="11" type="line"/>
			<point x="518" y="452" type="line"/>
			<point x="480" y="452" type="line"/>
			<point x="480" y="10" type="line"/>
			<point x="462" y="10" type="line"/>
			<point x="462" y="373" type="line" smooth="yes"/>
			<point x="462" y="463"/>
			<point x="412" y="518"/>
			<point x="330" y="518" type="curve" smooth="yes"/>
			<point x="248" y="518"/>
			<point x="198" y="482"/>
			<point x="164" y="445" type="curve"/>
			<point x="164" y="10" type="line"/>
			<point x="146" y="10" type="line"/>
			<point x="146" y="760" type="line"/>
			<point x="108" y="760" type="line"/>
			<point x="108" y="10" type="line"/>
			<point x="90" y="10" type="line"/>
			<point x="90" y="760" type="line"/>
		</contour>
	</outline>
</glyph>
<glyph name="i" format="2">
	<advance width="194"/>
	<unicode hex="0069"/>
	<outline>
		<contour>
			<point x="55" y="500" type="move"/>
			<point x="55" y="0" type="line"/>
			<point x="83" y="0" type="line"/>
			<point x="83" y="500" type="line"/>
			<point x="111" y="500" type="line"/>
			<point x="111" y="0" type="line"/>
			<point x="139" y="0" type="line"/>
			<point x="139" y="500" type="line"/>
		</contour>
		<contour>
			<point x="55" y="760" type="move"/>
			<point x="55" y="655" type="line"/>
			<point x="83" y="655" type="line"/>
			<point x="83" y="760" type="line"/>
			<point x="111" y="760" type="line"/>
			<point x="111" y="655" type="line"/>
			<point x="139" y="655" type="line"/>
			<point x="139" y="760" type="line"/>
		</contour>
	</outline>
</glyph>
<glyph name="j" format="2">
	<advance width="600"/>
	<unicode hex="006A"/>
	<outline>
		<contour>
			<point x="451" y="-138" type="move"/>
			<point x="451" y="500" type="line"/>
			<point x="423" y="500" type="line"/>
			<point x="423" y="-138" type="line"/>
			<point x="395" y="-138" type="line"/>
			<point x="395" y="500" type="line"/>
			<point x="367" y="500" type="line"/>
			<point x="367" y="-137" type="line"/>
			<point x="348" y="-174"/>
			<point x="322" y="-218"/>
			<point x="249" y="-218" type="curve" smooth="yes"/>
			<point x="174" y="-218"/>
			<point x="138" y="-158"/>
			<point x="138" y="-69" type="curve" smooth="yes"/>
			<point x="138" y="-56" type="line"/>
			<point x="110" y="-56" type="line"/>
			<point x="110" y="-62"/>
			<point x="110" y="-121"/>
			<point x="110" y="-138" type="curve"/>
			<point x="82" y="-138" type="line"/>
			<point x="82" y="-57" type="line"/>
			<point x="54" y="-57" type="line"/>
			<point x="54" y="-141" type="line"/>
		</contour>
		<contour>
			<point x="367" y="760" type="move"/>
			<point x="367" y="655" type="line"/>
			<point x="395" y="655" type="line"/>
			<point x="395" y="760" type="line"/>
			<point x="423" y="760" type="line"/>
			<point x="423" y="655" type="line"/>
			<point x="451" y="655" type="line"/>
			<point x="451" y="760" type="line"/>
		</contour>
	</outline>
</glyph>
<glyph name="k" format="2">
	<advance width="470"/>
	<unicode hex="006B"/>
	<outline>
		<contour>
			<point x="77" y="760" type="move"/>
			<point x="77" y="0" type="line"/>
			<point x="105" y="0" type="line"/>
			<point x="105" y="760" type="line"/>
			<point x="133" y="760" type="line"/>
			<point x="133" y="0" type="line"/>
			<point x="161" y="0" type="line"/>
			<point x="161" y="266" type="line"/>
			<point x="395" y="514" type="line"/>
			<point x="416" y="492" type="line"/>
			<point x="338" y="405" type="line"/>
		</contour>
		<contour>
			<point x="406" y="-13" type="move"/>
			<point x="222" y="279" type="line"/>
			<point x="245" y="301" type="line"/>
			<point x="431" y="-1" type="line"/>
			<point x="454" y="14" type="line"/>
			<point x="264" y="320" type="line"/>
			<point x="284" y="339" type="line"/>
			<point x="347" y="237" type="line"/>
		</contour>
	</outline>
</glyph>
<glyph name="l" format="2">
	<advance width="274"/>
	<unicode hex="006C"/>
	<outline>
		<contour>
			<point x="174" y="760" type="line"/>
			<point x="174" y="10" type="line"/>
			<point x="156" y="10" type="line"/>
			<point x="156" y="760" type="line"/>
			<point x="118" y="760" type="line"/>
			<point x="118" y="10" type="line"/>
			<point x="100" y="10" type="line"/>
			<point x="100" y="760" type="line"/>
			<point x="90" y="760" type="line"/>
			<point x="90" y="0" type="line"/>
			<point x="128" y="0" type="line"/>
			<point x="128" y="750" type="line"/>
			<point x="146" y="750" type="line"/>
			<point x="146" y="0" type="line"/>
			<point x="184" y="0" type="line"/>
			<point x="184" y="760" type="line"/>
		</contour>
	</outline>
</glyph>
<glyph name="m" format="2">
	<advance width="928"/>
	<unicode hex="006D"/>
	<outline>
		<contour>
			<point x="80" y="500" type="move"/>
			<point x="80" y="0" type="line"/>
			<point x="108" y="0" type="line"/>
			<point x="108" y="500" type="line"/>
			<point x="136" y="500" type="line"/>
			<point x="136" y="0" type="line"/>
			<point x="164" y="0" type="line"/>
			<point x="164" y="432" type="line"/>
			<point x="198" y="471"/>
			<point x="238" y="520"/>
			<point x="300" y="518" type="curve"/>
			<point x="373" y="520"/>
			<point x="412" y="462"/>
			<point x="412" y="373" type="curve" smooth="yes"/>
			<point x="412" y="0" type="line"/>
			<point x="440" y="0" type="line"/>
			<point x="440" y="146"/>
			<point x="440" y="425"/>
			<point x="440" y="442" type="curve"/>
			<point x="468" y="442" type="line"/>
			<point x="468" y="1" type="line"/>
			<point x="496" y="1" type="line"/>
			<point x="496" y="432" type="line"/>
			<point x="530" y="471"/>
			<point x="570" y="520"/>
			<point x="632" y="518" type="curve"/>
			<point x="705" y="520"/>
			<point x="744" y="462"/>
			<point x="744" y="373" type="curve" smooth="yes"/>
			<point x="744" y="0" type="line"/>
			<point x="772" y="0" type="line"/>
			<point x="772" y="146"/>
			<point x="772" y="425"/>
			<point x="772" y="442" type="curve"/>
			<point x="800" y="442" type="line"/>
			<point x="800" y="1" type="line"/>
			<point x="828" y="1" type="line"/>
			<point x="828" y="445" type="line"/>
		</contour>
	</outline>
</glyph>
<glyph name="n" format="2">
	<advance width="616"/>
	<unicode hex="006E"/>
	<anchor x="329" y="518" name="top"/>
	<anchor x="308" y="0" name="bottom"/>
	<outline>
		<contour>
			<point x="85" y="500" type="move"/>
			<point x="85" y="0" type="line"/>
			<point x="113" y="0" type="line"/>
			<point x="113" y="500" type="line"/>
			<point x="141" y="500" type="line"/>
			<point x="141" y="0" type="line"/>
			<point x="169" y="0" type="line"/>
			<point x="169" y="432" type="line"/>
			<point x="203" y="471"/>
			<point x="253" y="520"/>
			<point x="335" y="518" type="curve"/>
			<point x="418" y="520"/>
			<point x="457" y="462"/>
			<point x="457" y="373" type="curve" smooth="yes"/>
			<point x="457" y="0" type="line"/>
			<point x="485" y="0" type="line"/>
			<point x="485" y="146"/>
			<point x="485" y="425"/>
			<point x="485" y="442" type="curve"/>
			<point x="513" y="442" type="line"/>
			<point x="513" y="1" type="line"/>
			<point x="541" y="1" type="line"/>
			<point x="541" y="445" type="line"/>
		</contour>
	</outline>
</glyph>
<glyph name="o" format="2">
	<advance width="538"/>
	<unicode hex="006F"/>
	<outline>
		<contour>
			<point x="489" y="108" type="move"/>
			<point x="489" y="389" type="line"/>
			<point x="461" y="389" type="line"/>
			<point x="461" y="111" type="line"/>
			<point x="433" y="111" type="line"/>
			<point x="433" y="390" type="line"/>
			<point x="405" y="390" type="line"/>
		</contour>
		<contour>
			<point x="49" y="394" type="move"/>
			<point x="49" y="113" type="line"/>
			<point x="77" y="113" type="line"/>
			<point x="77" y="391" type="line"/>
			<point x="105" y="391" type="line"/>
			<point x="105" y="112" type="line"/>
			<point x="133" y="112" type="line"/>
		</contour>
		<contour>
			<point x="133" y="134" type="curve" smooth="yes"/>
			<point x="133" y="368" type="line" smooth="yes"/>
			<point x="133" y="457"/>
			<point x="172" y="515"/>
			<point x="269" y="513" type="curve" smooth="yes"/>
			<point x="366" y="515"/>
			<point x="405" y="457"/>
			<point x="405" y="368" type="curve" smooth="yes"/>
			<point x="405" y="134" type="line" smooth="yes"/>
			<point x="405" y="45"/>
			<point x="366" y="-13"/>
			<point x="269" y="-11" type="curve" smooth="yes"/>
			<point x="172" y="-13"/>
			<point x="133" y="45"/>
		</contour>
	</outline>
</glyph>
<glyph name="p" format="2">
	<advance width="544"/>
	<unicode hex="0070"/>
	<outline>
		<contour>
			<point x="66" y="-200" type="move"/>
			<point x="66" y="389" type="line"/>
			<point x="94" y="389" type="line"/>
			<point x="94" y="-200" type="line"/>
			<point x="122" y="-200" type="line"/>
			<point x="122" y="390" type="line"/>
			<point x="150" y="390" type="line"/>
		</contour>
		<contour>
			<point x="506" y="394" type="move"/>
			<point x="506" y="113" type="line"/>
			<point x="478" y="113" type="line"/>
			<point x="478" y="391" type="line"/>
			<point x="450" y="391" type="line"/>
			<point x="450" y="112" type="line"/>
			<point x="422" y="112" type="line"/>
		</contour>
		<contour>
			<point x="422" y="134" type="line" smooth="yes"/>
			<point x="422" y="45"/>
			<point x="383" y="-13"/>
			<point x="286" y="-11" type="curve" smooth="yes"/>
			<point x="189" y="-13"/>
			<point x="150" y="45"/>
			<point x="150" y="134" type="curve" smooth="yes"/>
			<point x="150" y="368" type="line" smooth="yes"/>
			<point x="150" y="457"/>
			<point x="189" y="515"/>
			<point x="286" y="513" type="curve" smooth="yes"/>
			<point x="383" y="515"/>
			<point x="422" y="457"/>
			<point x="422" y="368" type="curve" smooth="yes"/>
		</contour>
	</outline>
</glyph>
<glyph name="q" format="2">
	<advance width="539"/>
	<unicode hex="0071"/>
	<outline>
		<contour>
			<point x="485" y="-200" type="move"/>
			<point x="485" y="389" type="line"/>
			<point x="457" y="389" type="line"/>
			<point x="457" y="-200" type="line"/>
			<point x="429" y="-200" type="line"/>
			<point x="429" y="390" type="line"/>
			<point x="401" y="390" type="line"/>
		</contour>
		<contour>
			<point x="45" y="394" type="move"/>
			<point x="45" y="113" type="line"/>
			<point x="73" y="113" type="line"/>
			<point x="73" y="391" type="line"/>
			<point x="101" y="391" type="line"/>
			<point x="101" y="112" type="line"/>
			<point x="129" y="112" type="line"/>
		</contour>
		<contour>
			<point x="129" y="134" type="curve" smooth="yes"/>
			<point x="129" y="368" type="line" smooth="yes"/>
			<point x="129" y="457"/>
			<point x="168" y="515"/>
			<point x="265" y="513" type="curve" smooth="yes"/>
			<point x="362" y="515"/>
			<point x="401" y="457"/>
			<point x="401" y="368" type="curve" smooth="yes"/>
			<point x="401" y="134" type="line" smooth="yes"/>
			<point x="401" y="45"/>
			<point x="362" y="-13"/>
			<point x="265" y="-11" type="curve" smooth="yes"/>
			<point x="168" y="-13"/>
			<point x="129" y="45"/>
		</contour>
	</outline>
</glyph>
<glyph name="r" format="2">
	<advance width="452"/>
	<unicode hex="0072"/>
	<anchor x="329" y="518" name="top"/>
	<anchor x="308" y="0" name="bottom"/>
	<outline>
		<contour>
			<point x="85" y="500" type="move"/>
			<point x="85" y="0" type="line"/>
			<point x="113" y="0" type="line"/>
			<point x="113" y="500" type="line"/>
			<point x="141" y="500" type="line"/>
			<point x="141" y="0" type="line"/>
			<point x="169" y="0" type="line"/>
			<point x="169" y="432" type="line"/>
			<point x="203" y="471"/>
			<point x="253" y="520"/>
			<point x="335" y="518" type="curve"/>
			<point x="373" y="519"/>
			<point x="402" y="507"/>
			<point x="422" y="486" type="curve"/>
		</contour>
		<contour>
			<point x="422" y="486" type="move"/>
		</contour>
	</outline>
</glyph>
<glyph name="s" format="2">
	<advance width="600"/>
	<unicode hex="0073"/>
	<outline>
		<contour>
			<point x="516" y="480" type="move"/>
			<point x="516" y="401" type="line"/>
			<point x="488" y="401" type="line"/>
			<point x="488" y="480" type="line"/>
			<point x="460" y="480" type="line"/>
			<point x="460" y="401" type="line"/>
			<point x="432" y="401" type="line"/>
			<point x="432" y="486" type="line"/>
			<point x="421" y="496"/>
			<point x="379" y="518"/>
			<point x="289" y="518" type="curve" smooth="yes"/>
			<point x="205" y="518"/>
			<point x="137" y="472"/>
			<point x="137" y="412" type="curve" smooth="yes"/>
			<point x="137" y="360"/>
			<point x="166" y="315"/>
			<point x="267" y="293" type="curve" smooth="yes"/>
			<point x="425" y="258" type="line"/>
			<point x="418" y="225" type="line"/>
			<point x="179" y="277" type="line"/>
			<point x="173" y="245" type="line"/>
			<point x="298" y="217" type="line" smooth="yes"/>
			<point x="419" y="190"/>
			<point x="476" y="155"/>
			<point x="476" y="91" type="curve" smooth="yes"/>
			<point x="476" y="13"/>
			<point x="406" y="-18"/>
			<point x="334" y="-18" type="curve" smooth="yes"/>
			<point x="285" y="-18"/>
			<point x="220" y="-5"/>
			<point x="184" y="20" type="curve"/>
			<point x="184" y="107" type="line"/>
			<point x="156" y="107" type="line"/>
			<point x="156" y="0" type="line"/>
			<point x="128" y="0" type="line"/>
			<point x="128" y="107" type="line"/>
			<point x="97" y="107" type="line"/>
			<point x="97" y="0" type="line"/>
		</contour>
		<contour>
			<point x="259" y="329" type="move"/>
			<point x="430" y="295" type="line"/>
		</contour>
	</outline>
</glyph>
<glyph name="t" format="2">
	<advance width="600"/>
	<unicode hex="0074"/>
	<outline>
		<contour>
			<point x="483" y="59" type="move"/>
			<point x="483" y="193" type="line"/>
			<point x="455" y="193" type="line"/>
			<point x="455" y="62" type="line"/>
			<point x="427" y="62" type="line"/>
			<point x="427" y="79"/>
			<point x="427" y="138"/>
			<point x="427" y="194" type="curve"/>
			<point x="399" y="194" type="line"/>
			<point x="399" y="131" type="line" smooth="yes"/>
			<point x="399" y="42"/>
			<point x="360" y="-18"/>
			<point x="278" y="-18" type="curve" smooth="yes"/>
			<point x="205" y="-18"/>
			<point x="169" y="28"/>
			<point x="140" y="63" type="curve"/>
			<point x="140" y="672" type="line"/>
			<point x="112" y="672" type="line"/>
			<point x="112" y="62" type="line"/>
			<point x="84" y="62" type="line"/>
			<point x="84" y="672" type="line"/>
			<point x="56" y="672" type="line"/>
			<point x="56" y="62" type="line"/>
		</contour>
		<contour>
			<point x="319" y="482" type="move"/>
			<point x="141" y="482" type="line"/>
		</contour>
	</outline>
</glyph>
<glyph name="u" format="2">
	<advance width="599"/>
	<unicode hex="0075"/>
	<outline>
		<contour>
			<point x="524" y="0" type="move"/>
			<point x="524" y="500" type="line"/>
			<point x="496" y="500" type="line"/>
			<point x="496" y="0" type="line"/>
			<point x="468" y="0" type="line"/>
			<point x="468" y="500" type="line"/>
			<point x="440" y="500" type="line"/>
			<point x="440" y="68" type="line"/>
			<point x="406" y="29"/>
			<point x="356" y="-20"/>
			<point x="274" y="-18" type="curve"/>
			<point x="191" y="-20"/>
			<point x="152" y="38"/>
			<point x="152" y="127" type="curve" smooth="yes"/>
			<point x="152" y="500" type="line"/>
			<point x="124" y="500" type="line"/>
			<point x="124" y="354"/>
			<point x="124" y="75"/>
			<point x="124" y="58" type="curve"/>
			<point x="96" y="58" type="line"/>
			<point x="96" y="499" type="line"/>
			<point x="68" y="499" type="line"/>
			<point x="68" y="55" type="line"/>
		</contour>
	</outline>
</glyph>
<glyph name="v" format="2">
	<advance width="496"/>
	<unicode hex="0076"/>
	<outline>
		<contour>
			<point x="448" y="407" type="line"/>
			<point x="474" y="493" type="line"/>
			<point x="457" y="498" type="line"/>
			<point x="278" y="0" type="line"/>
			<point x="268" y="0" type="line"/>
			<point x="89" y="500" type="line"/>
			<point x="72" y="494" type="line"/>
			<point x="253" y="-11" type="line"/>
			<point x="218" y="-22" type="line"/>
			<point x="38" y="482" type="line"/>
			<point x="21" y="475" type="line"/>
			<point x="161" y="73" type="line"/>
			<point x="151" y="73" type="line"/>
			<point x="10" y="478" type="line"/>
			<point x="44" y="491" type="line"/>
			<point x="224" y="-12" type="line"/>
			<point x="241" y="-6" type="line"/>
			<point x="61" y="497" type="line"/>
			<point x="95" y="510" type="line"/>
			<point x="273" y="14" type="line"/>
			<point x="450" y="509" type="line"/>
			<point x="486" y="500" type="line"/>
			<point x="458" y="407" type="line"/>
		</contour>
	</outline>
</glyph>
<glyph name="w" format="2">
	<advance width="782"/>
	<unicode hex="0077"/>
	<outline>
		<contour>
			<point x="178" y="73" type="move"/>
			<point x="38" y="478" type="line"/>
			<point x="63" y="489" type="line"/>
			<point x="235" y="-22" type="line"/>
			<point x="260" y="-11" type="line"/>
			<point x="88" y="499" type="line"/>
			<point x="113" y="510" type="line"/>
			<point x="285" y="0" type="line"/>
			<point x="368" y="509" type="line"/>
			<point x="394" y="500" type="line"/>
			<point x="380" y="407" type="line"/>
		</contour>
		<contour>
			<point x="516" y="73" type="move"/>
			<point x="418" y="478" type="line"/>
			<point x="443" y="489" type="line"/>
			<point x="565" y="-22" type="line"/>
			<point x="590" y="-11" type="line"/>
			<point x="468" y="499" type="line"/>
			<point x="493" y="510" type="line"/>
			<point x="615" y="0" type="line"/>
			<point x="748" y="509" type="line"/>
			<point x="774" y="500" type="line"/>
			<point x="746" y="407" type="line"/>
		</contour>
	</outline>
</glyph>
<glyph name="y" format="2">
	<advance width="482"/>
	<unicode hex="0079"/>
	<outline>
		<contour>
			<point x="177" y="50" type="move"/>
			<point x="8" y="478" type="line"/>
			<point x="33" y="489" type="line"/>
			<point x="203" y="62" type="line"/>
			<point x="228" y="73" type="line"/>
			<point x="58" y="499" type="line"/>
			<point x="83" y="510" type="line"/>
			<point x="269" y="41" type="line"/>
		</contour>
		<contour>
			<point x="135" y="-83" type="move"/>
			<point x="94" y="-186" type="line"/>
			<point x="120" y="-196" type="line"/>
			<point x="161" y="-95" type="line"/>
			<point x="186" y="-106" type="line"/>
			<point x="180" y="-122"/>
			<point x="166" y="-153"/>
			<point x="147" y="-206" type="curve"/>
			<point x="173" y="-217" type="line"/>
			<point x="448" y="509" type="line"/>
			<point x="474" y="500" type="line"/>
			<point x="446" y="407" type="line"/>
		</contour>
	</outline>
</glyph>
<glyph name="z" format="2">
	<advance width="600"/>
	<unicode hex="007A"/>
	<outline>
		<contour>
			<point x="478" y="109" type="move"/>
			<point x="478" y="0" type="line"/>
			<point x="450" y="0" type="line"/>
			<point x="450" y="109" type="line"/>
			<point x="422" y="109" type="line"/>
			<point x="422" y="0" type="line"/>
			<point x="196" y="51" type="line"/>
			<point x="144" y="-18" type="line"/>
			<point x="120" y="-2" type="line"/>
			<point x="459" y="468" type="line"/>
			<point x="435" y="485" type="line"/>
			<point x="97" y="14" type="line"/>
			<point x="74" y="31" type="line"/>
			<point x="409" y="500" type="line"/>
			<point x="169" y="500" type="line"/>
			<point x="169" y="391" type="line"/>
			<point x="141" y="391" type="line"/>
			<point x="141" y="500" type="line"/>
			<point x="113" y="500" type="line"/>
			<point x="113" y="391" type="line"/>
		</contour>
	</outline>
</glyph>
<glyph name="tildecomb" format="2">
	<advance width="424"/>
	<unicode hex="0303"/>
	<anchor x="212" y="683" name="top"/>
	<anchor x="212" y="500" name="_top"/>
	<outline>
		<contour>
			<point x="43" y="611" type="move"/>
			<point x="72" y="624"/>
			<point x="100" y="631"/>
			<point x="127" y="631" type="curve" smooth="yes"/>
			<point x="156" y="631"/>
			<point x="184" y="620"/>
			<point x="212" y="597" type="curve" smooth="yes"/>
			<point x="240" y="574"/>
			<point x="268" y="563"/>
			<point x="297" y="563" type="curve" smooth="yes"/>
			<point x="324" y="563"/>
			<point x="352" y="570"/>
			<point x="381" y="583" type="curve"/>
			<point x="381" y="611" type="line"/>
			<point x="352" y="598"/>
			<point x="324" y="591"/>
			<point x="297" y="591" type="curve" smooth="yes"/>
			<point x="268" y="591"/>
			<point x="240" y="602"/>
			<point x="212" y="625" type="curve" smooth="yes"/>
			<point x="184" y="648"/>
			<point x="156" y="659"/>
			<point x="127" y="659" type="curve" smooth="yes"/>
			<point x="100" y="659"/>
			<point x="72" y="652"/>
			<point x="43" y="639" type="curve"/>
			<point x="43" y="663" type="line"/>
			<point x="72" y="676"/>
			<point x="100" y="683"/>
			<point x="127" y="683" type="curve" smooth="yes"/>
			<point x="156" y="683"/>
			<point x="184" y="672"/>
			<point x="212" y="649" type="curve" smooth="yes"/>
			<point x="240" y="626"/>
			<point x="268" y="615"/>
			<point x="297" y="615" type="curve" smooth="yes"/>
			<point x="324" y="615"/>
			<point x="352" y="622"/>
			<point x="381" y="635" type="curve"/>
		</contour>
	</outline>
</glyph>
<glyph name="cedillacomb" format="2">
	<advance width="600"/>
	<unicode hex="0327"/>
	<anchor x="282" y="0" name="_bottom"/>
	<anchor x="282" y="-268" name="bottom"/>
	<outline>
		<contour>
			<point x="282" y="-18" type="move"/>
			<point x="282" y="-102" type="line"/>
			<point x="328" y="-102"/>
			<point x="350" y="-116"/>
			<point x="350" y="-157" type="curve" smooth="yes"/>
			<point x="350" y="-198"/>
			<point x="333" y="-212"/>
			<point x="282" y="-212" type="curve"/>
			<point x="282" y="-238" type="line"/>
			<point x="343" y="-238"/>
			<point x="378" y="-210"/>
			<point x="378" y="-157" type="curve" smooth="yes"/>
			<point x="378" y="-110"/>
			<point x="350" y="-77"/>
			<point x="302" y="-77" type="curve"/>
			<point x="302" y="-47" type="line"/>
			<point x="364" y="-47"/>
			<point x="410" y="-99"/>
			<point x="410" y="-157" type="curve" smooth="yes"/>
			<point x="410" y="-222"/>
			<point x="353" y="-268"/>
			<point x="282" y="-268" type="curve"/>
		</contour>
	</outline>
</glyph>
<glyph name="c_h" format="2">
	<advance width="1216"/>
	<anchor x="306" y="518" name="top_1"/>
	<anchor x="282" y="-18" name="bottom_1"/>
	<outline>
		<contour>
			<point x="173" y="440" type="move"/>
			<point x="173" y="84" type="line"/>
			<point x="201" y="84" type="line"/>
			<point x="201" y="440" type="line"/>
			<point x="229" y="440" type="line"/>
			<point x="229" y="147" type="line" smooth="yes"/>
			<point x="229" y="50"/>
			<point x="280" y="-18"/>
			<point x="375" y="-18" type="curve" smooth="yes"/>
			<point x="479" y="-18"/>
			<point x="517" y="45"/>
			<point x="517" y="127" type="curve" smooth="yes"/>
			<point x="517" y="137" type="line"/>
			<point x="545" y="137" type="line"/>
			<point x="545" y="60"/>
			<point x="545" y="60"/>
			<point x="545" y="43" type="curve"/>
			<point x="573" y="43" type="line"/>
			<point x="573" y="136" type="line"/>
			<point x="601" y="136" type="line"/>
			<point x="601" y="40" type="line"/>
		</contour>
		<contour>
			<point x="257" y="137" type="move"/>
			<point x="257" y="196"/>
			<point x="257" y="306"/>
			<point x="257" y="353" type="curve" smooth="yes"/>
			<point x="257" y="478"/>
			<point x="329" y="518"/>
			<point x="399" y="518" type="curve" smooth="yes"/>
			<point x="463" y="518"/>
			<point x="517" y="484"/>
			<point x="517" y="376" type="curve" smooth="yes"/>
			<point x="517" y="344" type="line"/>
			<point x="545" y="344" type="line"/>
			<point x="545" y="443" type="line"/>
			<point x="573" y="443" type="line"/>
			<point x="573" y="344" type="line"/>
			<point x="601" y="344" type="line"/>
			<point x="601" y="443" type="line"/>
			<point x="601" y="760" type="line"/>
			<point x="629" y="760" type="line"/>
			<point x="629" y="344" type="line"/>
			<point x="657" y="344" type="line"/>
			<point x="657" y="760" type="line"/>
			<point x="685" y="760" type="line"/>
			<point x="685" y="0" type="line"/>
			<point x="713" y="0" type="line"/>
			<point x="713" y="760" type="line"/>
			<point x="741" y="760" type="line"/>
			<point x="741" y="0" type="line"/>
			<point x="769" y="0" type="line"/>
			<point x="769" y="432" type="line"/>
			<point x="803" y="471"/>
			<point x="853" y="520"/>
			<point x="935" y="518" type="curve"/>
			<point x="1018" y="520"/>
			<point x="1057" y="462"/>
			<point x="1057" y="373" type="curve" smooth="yes"/>
			<point x="1057" y="0" type="line"/>
			<point x="1085" y="0" type="line"/>
			<point x="1085" y="146"/>
			<point x="1085" y="425"/>
			<point x="1085" y="442" type="curve"/>
			<point x="1113" y="442" type="line"/>
			<point x="1113" y="1" type="line"/>
			<point x="1141" y="1" type="line"/>
			<point x="1141" y="445" type="line"/>
		</contour>
	</outline>
</glyph>
